<svg width="143" height="99" viewBox="0 0 143 99" fill="none" xmlns="http://www.w3.org/2000/svg">
<g filter="url(#filter0_dd_37_39)">
<rect x="4" width="94" height="91" rx="15" fill="#BBB2B2"/>
</g>
<g filter="url(#filter1_dd_37_39)">
<rect x="9.25439" y="4.99994" width="84.0721" height="80" rx="15" fill="url(#paint0_linear_37_39)"/>
</g>
<g opacity="0.7" filter="url(#filter2_d_37_39)">
<line y1="-0.5" x2="78.0003" y2="-0.5" transform="matrix(0.00289499 0.999996 -0.999998 0.00218064 20.1838 6)" stroke="black"/>
<line x1="33.0847" y1="6" x2="33.0847" y2="83.9999" stroke="black"/>
<line y1="-0.5" x2="78.0003" y2="-0.5" transform="matrix(0.00282851 0.999996 -0.999998 0.00220963 44.9854 6)" stroke="black"/>
<line y1="-0.5" x2="78.0003" y2="-0.5" transform="matrix(0.00282851 0.999996 -0.999998 0.00220963 57.3857 6)" stroke="black"/>
<line x1="70.2864" y1="6" x2="70.2864" y2="83.9999" stroke="black"/>
<line y1="-0.5" x2="78.0003" y2="-0.5" transform="matrix(0.00282851 0.999996 -0.999997 0.00220963 82.187 6)" stroke="black"/>
</g>
<g opacity="0.5">
<path d="M10.9993 15.2881C10.7232 15.2888 10.4999 15.5131 10.5007 15.7893C10.5014 16.0654 10.7259 16.2888 11.002 16.2881L10.9993 15.2881ZM91.9986 15.1001L10.9993 15.2881L11.002 16.2881L92.0014 16.1001L91.9986 15.1001Z" fill="black"/>
<path d="M11 26.9C10.7238 26.9 10.5 27.1239 10.5 27.4C10.5 27.6762 10.7238 27.9 11 27.9V26.9ZM91.9993 26.9L11 26.9V27.9L91.9993 27.9V26.9Z" fill="black"/>
<path d="M10.9994 38.8986C10.7233 38.8992 10.5 39.1237 10.5007 39.3998C10.5014 39.6759 10.7258 39.8992 11.002 39.8986L10.9994 38.8986ZM91.9987 38.7001L10.9994 38.8986L11.002 39.8986L92.0013 39.7001L91.9987 38.7001Z" fill="black"/>
<path d="M10.9994 50.6985C10.7233 50.6992 10.5 50.9236 10.5007 51.1997C10.5014 51.4759 10.7258 51.6992 11.002 51.6985L10.9994 50.6985ZM91.9987 50.5L10.9994 50.6985L11.002 51.6985L92.0013 51.5L91.9987 50.5Z" fill="black"/>
<path d="M11 62.3C10.7238 62.3 10.5 62.5239 10.5 62.8C10.5 63.0762 10.7238 63.3 11 63.3V62.3ZM91.9993 62.3H11V63.3H91.9993V62.3Z" fill="black"/>
<path d="M10.9994 74.2985C10.7233 74.2992 10.5 74.5236 10.5007 74.7997C10.5014 75.0758 10.7258 75.2991 11.002 75.2985L10.9994 74.2985ZM91.9987 74.1L10.9994 74.2985L11.002 75.2985L92.0013 75.1L91.9987 74.1Z" fill="black"/>
</g>
<path d="M28 27L30.7 14.3H36.08C36.9067 14.3 37.6267 14.3867 38.24 14.56C38.8667 14.72 39.38 14.9933 39.78 15.38C40.1933 15.7667 40.5 16.2733 40.7 16.9C40.9133 17.5267 41.02 18.2933 41.02 19.2C41.02 20.1733 40.8933 21.1267 40.64 22.06C40.4 22.9933 39.9933 23.8267 39.42 24.56C38.8467 25.2933 38.0933 25.8867 37.16 26.34C36.24 26.78 35.1 27 33.74 27H28ZM33.48 25.6C33.92 25.6 34.3067 25.42 34.64 25.06C34.9867 24.6867 35.28 24.22 35.52 23.66C35.7733 23.0867 35.98 22.46 36.14 21.78C36.3133 21.0867 36.4467 20.42 36.54 19.78C36.6467 19.14 36.72 18.5667 36.76 18.06C36.8133 17.5533 36.84 17.1933 36.84 16.98C36.84 16.5667 36.7533 16.2467 36.58 16.02C36.42 15.78 36.1333 15.66 35.72 15.66H34.76L32.62 25.6H33.48ZM45.1022 27H41.0422L42.8622 18.4H46.9622L45.1022 27ZM47.4822 15.78C47.4822 16.0867 47.4155 16.3533 47.2822 16.58C47.1622 16.8067 46.9955 17 46.7822 17.16C46.5822 17.32 46.3489 17.44 46.0822 17.52C45.8155 17.6 45.5422 17.64 45.2622 17.64C44.7289 17.64 44.2822 17.5133 43.9222 17.26C43.5622 17.0067 43.3822 16.6067 43.3822 16.06C43.3822 15.7667 43.4422 15.5067 43.5622 15.28C43.6822 15.04 43.8422 14.8467 44.0422 14.7C44.2555 14.54 44.4955 14.42 44.7622 14.34C45.0422 14.26 45.3289 14.22 45.6222 14.22C46.1422 14.22 46.5822 14.3467 46.9422 14.6C47.3022 14.8533 47.4822 15.2467 47.4822 15.78ZM48.5416 19.14C49.2216 18.8067 49.9149 18.5667 50.6216 18.42C51.3416 18.26 52.1416 18.18 53.0216 18.18C53.8749 18.18 54.5816 18.2467 55.1416 18.38C55.7016 18.5133 56.1482 18.7067 56.4816 18.96C56.8149 19.2133 57.0482 19.5133 57.1816 19.86C57.3149 20.2067 57.3816 20.6 57.3816 21.04C57.3816 21.2933 57.3616 21.5667 57.3216 21.86C57.2949 22.1533 57.2616 22.4 57.2216 22.6L56.2816 27H53.0616L52.7016 25.72H52.5816C52.1549 26.1867 51.6549 26.5467 51.0816 26.8C50.5216 27.04 49.9616 27.16 49.4016 27.16C49.0816 27.16 48.7682 27.1133 48.4616 27.02C48.1549 26.9267 47.8816 26.7867 47.6416 26.6C47.4016 26.4 47.2082 26.1533 47.0616 25.86C46.9149 25.5533 46.8416 25.1867 46.8416 24.76C46.8416 24.0667 47.0282 23.52 47.4016 23.12C47.7882 22.7067 48.2882 22.4 48.9016 22.2C49.5282 21.9867 50.2282 21.8533 51.0016 21.8C51.7882 21.7467 52.5749 21.72 53.3616 21.72C53.3882 21.5867 53.4216 21.4 53.4616 21.16C53.5016 20.9067 53.5216 20.6867 53.5216 20.5C53.5216 20.26 53.4549 20.04 53.3216 19.84C53.2016 19.6267 52.9416 19.52 52.5416 19.52C52.0749 19.52 51.7282 19.66 51.5016 19.94C51.2882 20.2067 51.1482 20.5333 51.0816 20.92H48.1616L48.5416 19.14ZM53.1416 22.66H52.7816C52.3949 22.66 52.0616 22.7133 51.7816 22.82C51.5149 22.9133 51.2949 23.04 51.1216 23.2C50.9616 23.36 50.8416 23.54 50.7616 23.74C50.6816 23.94 50.6416 24.14 50.6416 24.34C50.6416 24.66 50.7216 24.9 50.8816 25.06C51.0549 25.22 51.2549 25.3 51.4816 25.3C51.7616 25.3 52.0349 25.2 52.3016 25C52.5816 24.8 52.7549 24.5333 52.8216 24.2L53.1416 22.66ZM59.7567 18.4H63.0167L63.3167 19.9H63.4567C63.7634 19.42 64.1567 19.0133 64.6367 18.68C65.1167 18.3467 65.7501 18.18 66.5367 18.18C66.5901 18.18 66.6701 18.1867 66.7767 18.2C66.8967 18.2 67.0234 18.22 67.1567 18.26C67.3034 18.2867 67.4501 18.3333 67.5967 18.4C67.7567 18.4533 67.9101 18.5333 68.0567 18.64L67.1767 22.76H64.9967C64.9701 21.9333 64.8967 21.36 64.7767 21.04C64.6567 20.7067 64.4634 20.54 64.1967 20.54C64.0634 20.54 63.9167 20.5733 63.7567 20.64C63.6101 20.6933 63.4567 20.82 63.2967 21.02L62.0167 27H57.9367L59.7567 18.4ZM72.8247 18.4L73.4247 24.28L76.5847 18.4H78.7047L73.8847 27C73.4047 27.84 72.918 28.4867 72.4247 28.94C71.9314 29.3933 71.3914 29.7267 70.8047 29.94C70.2314 30.1533 69.5914 30.2733 68.8847 30.3C68.1914 30.34 67.398 30.36 66.5047 30.36L66.8047 28.98C67.2447 28.98 67.6514 28.9733 68.0247 28.96C68.4114 28.9467 68.718 28.9067 68.9447 28.84C69.2514 28.76 69.4714 28.6133 69.6047 28.4C69.738 28.2 69.8047 27.9 69.8047 27.5C69.8047 27.2333 69.778 26.9267 69.7247 26.58C69.6847 26.2333 69.638 25.8667 69.5847 25.48L68.6047 18.4H72.8247Z" fill="black"/>
<path d="M83.576 60.108H73.172L72.56 63.204C73.112 62.94 73.712 62.724 74.36 62.556C75.032 62.364 75.824 62.268 76.736 62.268C78.176 62.268 79.376 62.472 80.336 62.88C81.296 63.288 82.064 63.828 82.64 64.5C83.24 65.172 83.66 65.928 83.9 66.768C84.164 67.584 84.296 68.4 84.296 69.216C84.296 70.512 84.02 71.712 83.468 72.816C82.94 73.92 82.172 74.88 81.164 75.696C80.18 76.512 78.968 77.148 77.528 77.604C76.088 78.06 74.468 78.288 72.668 78.288C71.972 78.288 71.3 78.24 70.652 78.144C70.004 78.072 69.368 77.928 68.744 77.712C68.144 77.472 67.532 77.16 66.908 76.776C66.308 76.392 65.684 75.888 65.036 75.264L66.08 70.26H71.768C71.72 70.62 71.684 70.932 71.66 71.196C71.636 71.46 71.624 71.88 71.624 72.456C71.624 73.656 71.78 74.508 72.092 75.012C72.404 75.516 72.848 75.768 73.424 75.768C74.024 75.768 74.54 75.54 74.972 75.084C75.404 74.628 75.752 74.064 76.016 73.392C76.28 72.696 76.472 71.952 76.592 71.16C76.712 70.368 76.772 69.624 76.772 68.928C76.772 68.448 76.736 67.992 76.664 67.56C76.592 67.104 76.472 66.708 76.304 66.372C76.136 66.036 75.908 65.772 75.62 65.58C75.332 65.364 74.972 65.256 74.54 65.256C74.108 65.256 73.652 65.388 73.172 65.652C72.692 65.916 72.224 66.432 71.768 67.2H67.34L69.932 55.14H84.62L83.576 60.108Z" fill="black"/>
<defs>
<filter id="filter0_dd_37_39" x="0" y="0" width="102" height="99" filterUnits="userSpaceOnUse" color-interpolation-filters="sRGB">
<feFlood flood-opacity="0" result="BackgroundImageFix"/>
<feColorMatrix in="SourceAlpha" type="matrix" values="0 0 0 0 0 0 0 0 0 0 0 0 0 0 0 0 0 0 127 0" result="hardAlpha"/>
<feOffset dy="4"/>
<feGaussianBlur stdDeviation="2"/>
<feComposite in2="hardAlpha" operator="out"/>
<feColorMatrix type="matrix" values="0 0 0 0 0 0 0 0 0 0 0 0 0 0 0 0 0 0 0.25 0"/>
<feBlend mode="normal" in2="BackgroundImageFix" result="effect1_dropShadow_37_39"/>
<feColorMatrix in="SourceAlpha" type="matrix" values="0 0 0 0 0 0 0 0 0 0 0 0 0 0 0 0 0 0 127 0" result="hardAlpha"/>
<feOffset dy="4"/>
<feGaussianBlur stdDeviation="2"/>
<feComposite in2="hardAlpha" operator="out"/>
<feColorMatrix type="matrix" values="0 0 0 0 0 0 0 0 0 0 0 0 0 0 0 0 0 0 0.25 0"/>
<feBlend mode="normal" in2="effect1_dropShadow_37_39" result="effect2_dropShadow_37_39"/>
<feBlend mode="normal" in="SourceGraphic" in2="effect2_dropShadow_37_39" result="shape"/>
</filter>
<filter id="filter1_dd_37_39" x="5.25439" y="4.99994" width="92.0721" height="88" filterUnits="userSpaceOnUse" color-interpolation-filters="sRGB">
<feFlood flood-opacity="0" result="BackgroundImageFix"/>
<feColorMatrix in="SourceAlpha" type="matrix" values="0 0 0 0 0 0 0 0 0 0 0 0 0 0 0 0 0 0 127 0" result="hardAlpha"/>
<feOffset dy="4"/>
<feGaussianBlur stdDeviation="2"/>
<feComposite in2="hardAlpha" operator="out"/>
<feColorMatrix type="matrix" values="0 0 0 0 0 0 0 0 0 0 0 0 0 0 0 0 0 0 0.25 0"/>
<feBlend mode="normal" in2="BackgroundImageFix" result="effect1_dropShadow_37_39"/>
<feColorMatrix in="SourceAlpha" type="matrix" values="0 0 0 0 0 0 0 0 0 0 0 0 0 0 0 0 0 0 127 0" result="hardAlpha"/>
<feOffset dy="4"/>
<feGaussianBlur stdDeviation="2"/>
<feComposite in2="hardAlpha" operator="out"/>
<feColorMatrix type="matrix" values="0 0 0 0 0 0 0 0 0 0 0 0 0 0 0 0 0 0 0.25 0"/>
<feBlend mode="normal" in2="effect1_dropShadow_37_39" result="effect2_dropShadow_37_39"/>
<feBlend mode="normal" in="SourceGraphic" in2="effect2_dropShadow_37_39" result="shape"/>
</filter>
<filter id="filter2_d_37_39" x="16.1838" y="5.99779" width="71.2238" height="86.0022" filterUnits="userSpaceOnUse" color-interpolation-filters="sRGB">
<feFlood flood-opacity="0" result="BackgroundImageFix"/>
<feColorMatrix in="SourceAlpha" type="matrix" values="0 0 0 0 0 0 0 0 0 0 0 0 0 0 0 0 0 0 127 0" result="hardAlpha"/>
<feOffset dy="4"/>
<feGaussianBlur stdDeviation="2"/>
<feComposite in2="hardAlpha" operator="out"/>
<feColorMatrix type="matrix" values="0 0 0 0 0 0 0 0 0 0 0 0 0 0 0 0 0 0 0.25 0"/>
<feBlend mode="normal" in2="BackgroundImageFix" result="effect1_dropShadow_37_39"/>
<feBlend mode="normal" in="SourceGraphic" in2="effect1_dropShadow_37_39" result="shape"/>
</filter>
<linearGradient id="paint0_linear_37_39" x1="51.2904" y1="4.99994" x2="51.2904" y2="84.9999" gradientUnits="userSpaceOnUse">
<stop offset="0.415" stop-color="#FEF5AF"/>
<stop offset="0.84" stop-color="#FF9D00"/>
</linearGradient>
</defs>
</svg>
