<svg width="1420" height="920" viewBox="0 0 1420 920" fill="none" xmlns="http://www.w3.org/2000/svg">
<path d="M590.475 263L630.975 72.5H711.675C724.075 72.5 734.875 73.8 744.075 76.4C753.475 78.8 761.175 82.9 767.175 88.7C773.375 94.5 777.975 102.1 780.975 111.5C784.175 120.9 785.775 132.4 785.775 146C785.775 160.6 783.875 174.9 780.075 188.9C776.475 202.9 770.375 215.4 761.775 226.4C753.175 237.4 741.875 246.3 727.875 253.1C714.075 259.7 696.975 263 676.575 263H590.475ZM672.675 242C679.275 242 685.075 239.3 690.075 233.9C695.275 228.3 699.675 221.3 703.275 212.9C707.075 204.3 710.175 194.9 712.575 184.7C715.175 174.3 717.175 164.3 718.575 154.7C720.175 145.1 721.275 136.5 721.875 128.9C722.675 121.3 723.075 115.9 723.075 112.7C723.075 106.5 721.775 101.7 719.175 98.3C716.775 94.7 712.475 92.9 706.275 92.9H691.875L659.775 242H672.675ZM847.007 263H786.107L813.407 134H874.907L847.007 263ZM882.707 94.7C882.707 99.3 881.707 103.3 879.707 106.7C877.907 110.1 875.407 113 872.207 115.4C869.207 117.8 865.707 119.6 861.707 120.8C857.707 122 853.607 122.6 849.407 122.6C841.407 122.6 834.707 120.7 829.307 116.9C823.907 113.1 821.207 107.1 821.207 98.9C821.207 94.5 822.107 90.6 823.907 87.2C825.707 83.6 828.107 80.7 831.107 78.5C834.307 76.1 837.907 74.3 841.907 73.1C846.107 71.9 850.407 71.3 854.807 71.3C862.607 71.3 869.207 73.2 874.607 77C880.007 80.8 882.707 86.7 882.707 94.7ZM898.598 145.1C908.798 140.1 919.198 136.5 929.798 134.3C940.598 131.9 952.598 130.7 965.798 130.7C978.598 130.7 989.198 131.7 997.598 133.7C1006 135.7 1012.7 138.6 1017.7 142.4C1022.7 146.2 1026.2 150.7 1028.2 155.9C1030.2 161.1 1031.2 167 1031.2 173.6C1031.2 177.4 1030.9 181.5 1030.3 185.9C1029.9 190.3 1029.4 194 1028.8 197L1014.7 263H966.398L960.998 243.8H959.198C952.798 250.8 945.298 256.2 936.698 260C928.298 263.6 919.898 265.4 911.498 265.4C906.698 265.4 901.998 264.7 897.398 263.3C892.798 261.9 888.698 259.8 885.098 257C881.498 254 878.598 250.3 876.398 245.9C874.198 241.3 873.098 235.8 873.098 229.4C873.098 219 875.898 210.8 881.498 204.8C887.298 198.6 894.798 194 903.998 191C913.398 187.8 923.898 185.8 935.498 185C947.298 184.2 959.098 183.8 970.898 183.8C971.298 181.8 971.798 179 972.398 175.4C972.998 171.6 973.298 168.3 973.298 165.5C973.298 161.9 972.298 158.6 970.298 155.6C968.498 152.4 964.598 150.8 958.598 150.8C951.598 150.8 946.398 152.9 942.998 157.1C939.798 161.1 937.698 166 936.698 171.8H892.898L898.598 145.1ZM967.598 197.9H962.198C956.398 197.9 951.398 198.7 947.198 200.3C943.198 201.7 939.898 203.6 937.298 206C934.898 208.4 933.098 211.1 931.898 214.1C930.698 217.1 930.098 220.1 930.098 223.1C930.098 227.9 931.298 231.5 933.698 233.9C936.298 236.3 939.298 237.5 942.698 237.5C946.898 237.5 950.998 236 954.998 233C959.198 230 961.798 226 962.798 221L967.598 197.9ZM1066.83 134H1115.73L1120.23 156.5H1122.33C1126.93 149.3 1132.83 143.2 1140.03 138.2C1147.23 133.2 1156.73 130.7 1168.53 130.7C1169.33 130.7 1170.53 130.8 1172.13 131C1173.93 131 1175.83 131.3 1177.83 131.9C1180.03 132.3 1182.23 133 1184.43 134C1186.83 134.8 1189.13 136 1191.33 137.6L1178.13 199.4H1145.43C1145.03 187 1143.93 178.4 1142.13 173.6C1140.33 168.6 1137.43 166.1 1133.43 166.1C1131.43 166.1 1129.23 166.6 1126.83 167.6C1124.63 168.4 1122.33 170.3 1119.93 173.3L1100.73 263H1039.53L1066.83 134ZM1262.84 134L1271.84 222.2L1319.24 134H1351.04L1278.74 263C1271.54 275.6 1264.24 285.3 1256.84 292.1C1249.44 298.9 1241.34 303.9 1232.54 307.1C1223.94 310.3 1214.34 312.1 1203.74 312.5C1193.34 313.1 1181.44 313.4 1168.04 313.4L1172.54 292.7C1179.14 292.7 1185.24 292.6 1190.84 292.4C1196.64 292.2 1201.24 291.6 1204.64 290.6C1209.24 289.4 1212.54 287.2 1214.54 284C1216.54 281 1217.54 276.5 1217.54 270.5C1217.54 266.5 1217.14 261.9 1216.34 256.7C1215.74 251.5 1215.04 246 1214.24 240.2L1199.54 134H1262.84Z" fill="#3F3F50"/>
<path d="M203.065 614.75H130.815L126.565 636.25C130.399 634.417 134.565 632.917 139.065 631.75C143.732 630.417 149.232 629.75 155.565 629.75C165.565 629.75 173.899 631.167 180.565 634C187.232 636.833 192.565 640.583 196.565 645.25C200.732 649.917 203.649 655.167 205.315 661C207.149 666.667 208.065 672.333 208.065 678C208.065 687 206.149 695.333 202.315 703C198.649 710.667 193.315 717.333 186.315 723C179.482 728.667 171.065 733.083 161.065 736.25C151.065 739.417 139.815 741 127.315 741C122.482 741 117.815 740.667 113.315 740C108.815 739.5 104.399 738.5 100.065 737C95.8988 735.333 91.6488 733.167 87.3154 730.5C83.1488 727.833 78.8154 724.333 74.3154 720L81.5654 685.25H121.065C120.732 687.75 120.482 689.917 120.315 691.75C120.149 693.583 120.065 696.5 120.065 700.5C120.065 708.833 121.149 714.75 123.315 718.25C125.482 721.75 128.565 723.5 132.565 723.5C136.732 723.5 140.315 721.917 143.315 718.75C146.315 715.583 148.732 711.667 150.565 707C152.399 702.167 153.732 697 154.565 691.5C155.399 686 155.815 680.833 155.815 676C155.815 672.667 155.565 669.5 155.065 666.5C154.565 663.333 153.732 660.583 152.565 658.25C151.399 655.917 149.815 654.083 147.815 652.75C145.815 651.25 143.315 650.5 140.315 650.5C137.315 650.5 134.149 651.417 130.815 653.25C127.482 655.083 124.232 658.667 121.065 664H90.3154L108.315 580.25H210.315L203.065 614.75Z" fill="#3F3F50"/>
<path d="M299.339 253.1C295.539 253.1 292.139 252.1 289.139 250.1C286.339 248.1 284.939 245 284.939 240.8C284.939 238.4 285.539 235.7 286.739 232.7C287.339 231.1 289.039 227.1 291.839 220.7C294.839 214.3 298.239 206.8 302.039 198.2C302.639 197 303.439 196.4 304.439 196.4C305.439 196.4 306.239 196.8 306.839 197.6C307.639 198.4 307.839 199.4 307.439 200.6L292.439 234.8C291.439 237.2 290.939 239.1 290.939 240.5C290.939 242.9 291.739 244.7 293.339 245.9C294.939 246.9 296.739 247.4 298.739 247.4C301.139 247.4 303.439 246.8 305.639 245.6C308.039 244.2 309.639 242.5 310.439 240.5C311.239 238.5 312.839 234.7 315.239 229.1C317.639 223.3 320.539 216.6 323.939 209C327.539 201.2 331.239 193.1 335.039 184.7C338.839 176.1 342.439 167.9 345.839 160.1C349.439 152.3 352.539 145.6 355.139 140C357.739 134.4 359.539 130.6 360.539 128.6C362.139 125.8 364.139 123.3 366.539 121.1C368.939 118.9 371.239 116.7 373.439 114.5L374.639 113.3C376.839 110.5 377.939 107.8 377.939 105.2C377.939 102.2 376.539 99.9 373.739 98.3C371.139 96.5 368.339 95.6 365.339 95.6C362.339 95.6 359.739 96.5 357.539 98.3C356.139 99.7 353.739 101.7 350.339 104.3C346.939 106.9 342.939 109.9 338.339 113.3C333.739 116.7 328.739 120.4 323.339 124.4C318.139 128.2 312.739 132.2 307.139 136.4C299.739 141.8 292.539 147.2 285.539 152.6C278.739 157.8 272.739 162.4 267.539 166.4C262.339 170.4 258.739 173.4 256.739 175.4C254.539 177.6 252.939 179.7 251.939 181.7C250.939 183.7 250.439 185.5 250.439 187.1C250.439 191.7 253.239 194 258.839 194H297.839C299.839 194 300.839 195 300.839 197C300.839 199 299.839 200 297.839 200H258.839C253.639 200 249.939 198.9 247.739 196.7C245.539 194.5 244.439 191.8 244.439 188.6C244.439 185.6 245.139 182.6 246.539 179.6C248.139 176.4 250.139 173.6 252.539 171.2C254.739 169 258.439 165.8 263.639 161.6C268.839 157.4 274.939 152.7 281.939 147.5C288.939 142.3 296.139 137 303.539 131.6C309.139 127.4 314.639 123.4 320.039 119.6C325.439 115.6 330.339 111.9 334.739 108.5C339.139 105.1 342.939 102.2 346.139 99.8C349.539 97.2 351.939 95.2 353.339 93.8C354.939 92.2 356.739 91.1 358.739 90.5C360.739 89.9 362.739 89.6 364.739 89.6C369.739 89.6 374.239 91.3 378.239 94.7C382.439 98.1 384.539 102 384.539 106.4C384.539 110.6 382.539 114.4 378.539 117.8L377.339 119C375.339 121 373.239 123 371.039 125C369.039 126.8 367.339 129 365.939 131.6C364.939 133.4 363.139 137.1 360.539 142.7C357.939 148.3 354.839 155 351.239 162.8C347.639 170.4 343.939 178.5 340.139 187.1C336.539 195.5 333.039 203.6 329.639 211.4C326.239 219 323.239 225.7 320.639 231.5C318.239 237.1 316.639 240.9 315.839 242.9C314.639 246.3 312.439 248.9 309.239 250.7C306.039 252.3 302.739 253.1 299.339 253.1ZM281.039 177.5C279.039 177.5 278.039 176.5 278.039 174.5C278.039 172.5 279.039 171.5 281.039 171.5H305.039C309.639 171.5 312.639 170.9 314.039 169.7C315.439 168.5 316.939 166.2 318.539 162.8L325.439 147.8C327.239 143.8 329.039 140 330.839 136.4C332.839 132.8 334.239 130.4 335.039 129.2C335.639 128.4 336.439 128 337.439 128C338.439 128 339.339 128.5 340.139 129.5C340.939 130.5 340.839 131.6 339.839 132.8C339.239 133.6 338.039 135.7 336.239 139.1C334.639 142.5 332.839 146.2 330.839 150.2C329.039 154.2 327.439 157.7 326.039 160.7C324.639 163.7 323.939 165.2 323.939 165.2C321.939 169.6 319.739 172.8 317.339 174.8C314.939 176.6 310.839 177.5 305.039 177.5H281.039ZM340.139 200C338.139 200 337.139 199 337.139 197C337.139 195 338.139 194 340.139 194H364.739C366.139 194 367.939 192.7 370.139 190.1C372.539 187.5 373.739 185 373.739 182.6C373.739 181.2 373.139 180 371.939 179C370.739 178 368.539 177.5 365.339 177.5H353.639C351.639 177.5 350.639 176.5 350.639 174.5C350.639 172.5 351.639 171.5 353.639 171.5H365.339C370.539 171.5 374.239 172.6 376.439 174.8C378.639 176.8 379.739 179.3 379.739 182.3C379.739 186.3 378.139 190.3 374.939 194.3C371.939 198.1 368.539 200 364.739 200H340.139Z" fill="#3F3F50"/>
<path d="M1260.55 708.636H1287.83V735.909H1260.55V708.636ZM1233.28 708.636H1260.55V735.909H1233.28V708.636ZM1206.01 708.636H1233.28V735.909H1206.01V708.636ZM1206.01 735.909H1233.28V763.182H1206.01V735.909ZM1206.01 763.182H1233.28V790.455H1206.01V763.182ZM1233.28 763.182H1260.55V790.455H1233.28V763.182ZM1260.55 790.455H1287.83V817.727H1260.55V790.455ZM1260.55 763.182H1287.83V790.455H1260.55V763.182ZM1260.55 817.727H1287.83V845H1260.55V817.727ZM1233.28 817.727H1260.55V845H1233.28V817.727ZM1206.01 817.727H1233.28V845H1206.01V817.727Z" fill="#3F3F50"/>
<path d="M479.889 850.4C469.889 850.4 460.189 848.9 450.789 845.9C441.389 842.7 432.689 837.7 424.689 830.9C423.889 830.3 423.489 829.5 423.489 828.5C423.489 827.5 424.089 826.6 425.289 825.8C426.489 825 427.589 825.1 428.589 826.1C435.989 832.3 444.089 836.9 452.889 839.9C461.689 842.7 470.689 844.1 479.889 844.1C493.889 844.1 507.989 841.4 522.189 836C536.389 830.4 549.589 822.8 561.789 813.2C574.189 803.6 584.689 792.7 593.289 780.5C602.089 768.1 607.889 755.1 610.689 741.5C612.489 733.1 613.389 725.3 613.389 718.1C613.389 703.3 610.089 690.5 603.489 679.7C597.089 668.9 588.089 660.1 576.489 653.3C564.889 646.3 551.489 641.2 536.289 638C521.289 634.6 505.189 632.9 487.989 632.9C460.789 632.9 436.189 635.7 414.189 641.3C392.389 646.7 373.189 654 356.589 663.2C339.989 672.2 326.089 682.2 314.889 693.2C303.689 704.2 295.289 715.4 289.689 726.8C284.089 738 281.289 748.5 281.289 758.3C281.289 769.5 285.089 778.8 292.689 786.2C300.489 793.6 312.189 797.3 327.789 797.3C340.189 797.3 353.389 793.9 367.389 787.1C381.589 780.1 394.489 770.1 406.089 757.1C409.089 753.7 412.489 749.3 416.289 743.9C420.089 738.5 423.689 732.7 427.089 726.5C430.689 720.3 433.589 714.2 435.789 708.2C437.989 702 439.089 696.5 439.089 691.7C439.089 688.1 438.289 685 436.689 682.4C436.289 682 435.589 681.8 434.589 681.8C432.789 681.8 431.589 682.1 430.989 682.7C431.589 684.1 431.889 685.8 431.889 687.8C431.889 692.8 430.389 699.3 427.389 707.3C424.589 715.1 420.789 723.2 415.989 731.6C411.189 739.8 405.889 747.2 400.089 753.8C394.089 760.6 387.089 766.6 379.089 771.8C371.089 776.8 362.889 780.7 354.489 783.5C346.089 786.1 338.089 787.4 330.489 787.4C318.689 787.4 309.589 784.7 303.189 779.3C296.989 773.7 293.889 766.6 293.889 758C293.889 755.2 294.189 752.3 294.789 749.3C297.189 737.7 303.089 725.8 312.489 713.6C321.889 701.2 334.589 689.8 350.589 679.4C366.789 668.8 386.089 660.3 408.489 653.9C431.089 647.3 456.789 644 485.589 644C499.989 644 513.589 645.5 526.389 648.5C539.389 651.5 550.889 656.1 560.889 662.3C570.889 668.5 578.689 676.5 584.289 686.3C590.089 695.9 592.989 707.4 592.989 720.8C592.989 724 592.789 727.4 592.389 731C591.989 734.6 591.389 738.3 590.589 742.1C588.189 753.1 583.389 763.9 576.189 774.5C569.189 784.9 560.489 794.4 550.089 803C539.689 811.6 528.389 818.5 516.189 823.7C503.989 828.7 491.589 831.2 478.989 831.2C471.989 831.2 464.989 830.3 457.989 828.5C451.189 826.5 444.589 823.5 438.189 819.5C437.189 818.9 436.689 818.1 436.689 817.1C436.689 816.1 437.189 815.3 438.189 814.7C439.189 813.9 440.289 813.9 441.489 814.7C447.289 818.3 453.289 821 459.489 822.8C465.889 824.4 472.289 825.2 478.689 825.2C490.489 825.2 502.189 822.8 513.789 818C525.389 813.2 536.089 806.8 545.889 798.8C555.889 790.8 564.289 781.8 571.089 771.8C578.089 761.6 582.689 751.3 584.889 740.9C585.689 737.3 586.189 733.9 586.389 730.7C586.789 727.3 586.989 724.1 586.989 721.1C586.989 704.7 582.389 691.3 573.189 680.9C564.189 670.3 551.989 662.5 536.589 657.5C521.389 652.5 504.389 650 485.589 650C457.189 650 431.989 653.2 409.989 659.6C387.989 665.8 369.289 674 353.889 684.2C338.489 694.4 326.289 705.4 317.289 717.2C308.289 728.8 302.689 739.9 300.489 750.5C300.289 751.7 300.089 752.9 299.889 754.1C299.889 755.3 299.889 756.4 299.889 757.4C299.889 764.4 302.389 770.2 307.389 774.8C312.389 779.2 320.089 781.4 330.489 781.4C337.489 781.4 344.889 780.1 352.689 777.5C360.489 774.9 368.089 771.3 375.489 766.7C383.089 761.9 389.789 756.2 395.589 749.6C401.589 742.8 406.789 735.4 411.189 727.4C415.789 719.2 419.289 711.6 421.689 704.6C424.289 697.4 425.589 691.9 425.589 688.1C425.589 686.7 425.489 685.7 425.289 685.1C425.089 684.7 424.889 684.3 424.689 683.9C424.689 683.5 424.689 683.1 424.689 682.7C424.689 680.5 425.689 678.8 427.689 677.6C429.689 676.4 431.889 675.8 434.289 675.8C437.689 675.8 440.189 676.9 441.789 679.1C443.989 682.5 445.089 686.6 445.089 691.4C445.089 697 443.789 703.2 441.189 710C438.789 716.8 435.689 723.5 431.889 730.1C428.289 736.7 424.489 742.7 420.489 748.1C416.689 753.5 413.389 757.8 410.589 761C398.389 774.6 384.889 785.1 370.089 792.5C355.289 799.7 341.189 803.3 327.789 803.3C310.189 803.3 296.989 799.1 288.189 790.7C279.589 782.3 275.289 771.7 275.289 758.9C275.289 748.5 278.189 737.3 283.989 725.3C289.789 713.3 298.389 701.5 309.789 689.9C321.189 678.3 335.389 667.8 352.389 658.4C369.589 648.8 389.489 641.2 412.089 635.6C434.689 629.8 459.989 626.9 487.989 626.9C505.389 626.9 521.889 628.6 537.489 632C553.289 635.4 567.289 640.8 579.489 648.2C591.889 655.6 601.589 665.1 608.589 676.7C615.789 688.1 619.389 701.9 619.389 718.1C619.389 725.7 618.489 733.9 616.689 742.7C613.689 756.7 607.689 770.2 598.689 783.2C589.689 796 578.789 807.5 565.989 817.7C553.189 827.7 539.289 835.7 524.289 841.7C509.489 847.5 494.689 850.4 479.889 850.4ZM308.589 858.2C305.389 858.2 303.189 857.5 301.989 856.1C300.789 854.9 300.189 853.4 300.189 851.6C300.189 848.4 301.589 845.1 304.389 841.7C307.189 838.1 310.089 836.3 313.089 836.3C324.889 836.3 337.089 833.4 349.689 827.6C362.489 821.6 375.089 813.9 387.489 804.5C399.889 794.9 411.589 784.4 422.589 773C433.589 761.4 443.089 750.1 451.089 739.1C454.489 734.3 458.689 728.7 463.689 722.3C468.689 715.9 473.789 709.3 478.989 702.5C484.389 695.5 489.389 688.9 493.989 682.7C498.789 676.5 502.589 671.2 505.389 666.8C505.989 665.8 506.889 665.3 508.089 665.3C509.089 665.3 509.889 665.8 510.489 666.8C511.289 667.6 511.289 668.6 510.489 669.8C507.489 674.2 503.589 679.6 498.789 686C494.189 692.4 489.189 699.1 483.789 706.1C478.589 712.9 473.489 719.5 468.489 725.9C463.489 732.3 459.289 737.9 455.889 742.7C447.889 753.7 438.289 765.1 427.089 776.9C416.089 788.5 404.089 799.3 391.089 809.3C378.289 819.1 365.189 827.1 351.789 833.3C338.589 839.3 325.689 842.3 313.089 842.3C312.489 842.3 311.089 843.3 308.889 845.3C306.889 847.3 305.889 849 305.889 850.4C305.889 851.6 306.789 852.2 308.589 852.2C330.389 852.2 351.389 847.2 371.589 837.2C391.789 827.2 411.289 813.1 430.089 794.9C449.089 776.5 467.489 754.7 485.289 729.5C488.089 725.5 491.589 720.2 495.789 713.6C500.189 707 504.889 699.9 509.889 692.3C514.889 684.5 519.589 677.2 523.989 670.4C524.589 669.4 525.389 668.9 526.389 668.9C527.389 668.9 528.289 669.4 529.089 670.4C529.889 671.4 529.789 672.5 528.789 673.7C524.389 680.5 519.689 687.8 514.689 695.6C509.689 703.2 504.989 710.4 500.589 717.2C496.389 723.8 492.889 729.1 490.089 733.1C472.289 758.3 453.689 780.3 434.289 799.1C415.089 817.7 394.989 832.2 373.989 842.6C353.189 853 331.389 858.2 308.589 858.2ZM704.643 727.4C699.843 727.4 695.743 725.7 692.343 722.3C688.943 718.9 687.243 714.8 687.243 710C687.243 705 688.943 700.8 692.343 697.4C695.743 694 699.843 692.3 704.643 692.3C709.643 692.3 713.843 694 717.243 697.4C720.643 700.8 722.343 705 722.343 710C722.343 714.8 720.643 718.9 717.243 722.3C713.843 725.7 709.643 727.4 704.643 727.4ZM704.643 721.4C708.043 721.4 710.843 720.3 713.043 718.1C715.243 715.9 716.343 713.2 716.343 710C716.343 706.6 715.243 703.8 713.043 701.6C710.843 699.4 708.043 698.3 704.643 698.3C701.443 698.3 698.743 699.4 696.543 701.6C694.343 703.8 693.243 706.6 693.243 710C693.243 713.2 694.343 715.9 696.543 718.1C698.743 720.3 701.443 721.4 704.643 721.4ZM664.143 831.2C660.343 831.2 657.643 829.8 656.043 827C654.643 824.2 653.943 821.1 653.943 817.7C653.943 814.9 654.643 810.9 656.043 805.7C657.443 800.5 659.343 794.9 661.743 788.9C664.343 782.7 667.243 777 670.443 771.8C673.643 766.4 676.943 762.1 680.343 758.9C682.143 757.1 684.043 755.5 686.043 754.1C688.043 751.3 689.043 748.7 689.043 746.3C689.043 743.3 687.643 741 684.843 739.4C682.243 737.6 679.343 736.7 676.143 736.7C672.743 736.7 670.143 737.5 668.343 739.1C665.543 741.7 662.543 744.8 659.343 748.4C656.343 751.8 653.143 755.8 649.743 760.4C646.143 765 642.343 770 638.343 775.4C634.343 780.6 629.743 786.2 624.543 792.2C623.943 793 623.143 793.4 622.143 793.4C621.143 793.4 620.343 792.8 619.743 791.6C618.943 790.4 618.943 789.3 619.743 788.3C624.943 782.5 629.543 776.9 633.543 771.5C637.743 766.1 641.543 761.2 644.943 756.8C648.543 752.2 651.843 748.1 654.843 744.5C658.043 740.7 661.243 737.4 664.443 734.6C667.443 731.8 671.143 730.4 675.543 730.4C680.743 730.4 685.443 732.2 689.643 735.8C693.843 739.2 695.943 743.2 695.943 747.8C695.943 751.8 693.843 755.5 689.643 758.9L688.143 760.1C686.143 761.9 684.043 763.8 681.843 765.8C679.843 767.8 678.143 770 676.743 772.4C674.543 777 672.043 782.1 669.243 787.7C666.643 793.1 664.343 798.5 662.343 803.9C660.543 809.3 659.643 814.1 659.643 818.3C659.643 822.9 661.543 825.2 665.343 825.2C667.143 825.2 669.343 824.7 671.943 823.7C678.143 821.1 684.543 817 691.143 811.4C697.743 805.8 704.843 798.1 712.443 788.3C713.043 787.5 713.743 787.1 714.543 787.1C715.743 787.1 716.743 787.7 717.543 788.9C718.343 789.9 718.243 790.9 717.243 791.9C711.043 799.9 705.243 806.4 699.843 811.4C694.643 816.4 688.543 820.9 681.543 824.9C677.743 827.1 674.443 828.7 671.643 829.7C668.843 830.7 666.343 831.2 664.143 831.2ZM662.643 849.5C652.843 849.5 645.143 846.1 639.543 839.3C634.143 832.5 631.843 824.1 632.643 814.1C632.843 811.1 633.743 806.9 635.343 801.5C636.943 795.9 638.943 790.3 641.343 784.7C643.943 778.9 646.543 774.2 649.143 770.6C649.743 769.8 650.543 769.4 651.543 769.4C652.543 769.4 653.443 769.9 654.243 770.9C655.043 771.9 654.943 773 653.943 774.2C651.543 777.4 649.143 781.7 646.743 787.1C644.543 792.5 642.643 797.8 641.043 803C639.643 808.2 638.843 812.1 638.643 814.7C638.043 822.1 639.843 828.8 644.043 834.8C648.243 840.8 654.543 843.8 662.943 843.8C668.143 843.8 674.243 842.3 681.243 839.3C688.243 836.1 695.843 830.8 704.043 823.4C704.443 823 705.043 822.8 705.843 822.8C707.243 822.8 708.243 823.5 708.843 824.9C709.643 826.1 709.443 827.2 708.243 828.2C699.643 835.8 691.443 841.3 683.643 844.7C676.043 847.9 669.043 849.5 662.643 849.5ZM737.521 830.3C732.721 830.3 729.521 828.4 727.921 824.6C726.521 820.6 725.821 817.3 725.821 814.7C725.821 809.7 727.521 803.8 730.921 797C734.321 790.2 738.721 783.5 744.121 776.9C749.521 770.3 755.321 764.8 761.521 760.4C767.721 756 773.621 753.8 779.221 753.8C782.021 753.8 783.421 754.8 783.421 756.8C783.421 757.6 783.121 758.4 782.521 759.2C781.921 759.8 781.121 760 780.121 759.8C775.721 759.4 770.721 761.2 765.121 765.2C759.721 769 754.421 774 749.221 780.2C744.221 786.2 740.021 792.3 736.621 798.5C733.421 804.7 731.821 810.1 731.821 814.7C731.821 817.5 732.321 819.8 733.321 821.6C734.321 823.4 735.721 824.3 737.521 824.3C740.921 824.3 744.821 822.3 749.221 818.3C753.821 814.1 758.521 808.9 763.321 802.7C768.121 796.3 772.721 789.7 777.121 782.9C781.721 775.9 785.721 769.6 789.121 764C792.721 758.2 795.421 753.9 797.221 751.1C801.021 745.5 804.821 741.6 808.621 739.4C812.421 737 815.921 735.8 819.121 735.8C822.721 735.8 825.621 736.9 827.821 739.1C830.221 741.3 831.421 744.1 831.421 747.5C831.421 750.5 830.321 753.7 828.121 757.1C826.521 759.5 823.921 763.5 820.321 769.1C816.721 774.5 813.021 780.4 809.221 786.8C805.421 793 802.221 798.7 799.621 803.9C796.821 809.9 795.421 814.7 795.421 818.3C795.421 822.3 797.421 824.3 801.421 824.3C805.021 824.3 809.021 823.1 813.421 820.7C818.021 818.3 822.621 815.2 827.221 811.4C831.821 807.6 836.121 803.7 840.121 799.7C844.121 795.5 847.421 791.7 850.021 788.3C850.621 787.5 851.321 787.1 852.121 787.1C853.321 787.1 854.221 787.7 854.821 788.9C855.621 789.9 855.621 790.9 854.821 791.9C852.221 795.7 848.621 799.8 844.021 804.2C839.621 808.6 834.821 812.8 829.621 816.8C824.421 820.8 819.221 824.1 814.021 826.7C808.821 829.1 804.221 830.3 800.221 830.3C796.421 830.3 793.621 829.2 791.821 827C790.221 824.8 789.421 822 789.421 818.6C789.421 814.4 790.621 809.6 793.021 804.2C795.621 798.6 798.821 792.5 802.621 785.9C806.621 779.1 810.521 772.8 814.321 767C818.321 761 821.321 756.5 823.321 753.5C824.721 751.5 825.421 749.5 825.421 747.5C825.421 743.7 823.421 741.8 819.421 741.8C817.221 741.8 814.521 742.8 811.321 744.8C808.321 746.8 805.221 750.1 802.021 754.7C797.621 761.3 792.721 768.9 787.321 777.5C782.121 786.1 776.821 794.2 771.421 801.8C766.021 809.2 760.421 815.8 754.621 821.6C749.021 827.4 743.321 830.3 737.521 830.3ZM714.721 793.4C713.721 793.4 712.921 792.9 712.321 791.9C711.521 790.9 711.521 789.8 712.321 788.6C715.721 783.8 719.621 778.6 724.021 773C728.621 767.2 733.721 761.8 739.321 756.8C744.921 751.6 750.921 747.4 757.321 744.2C763.721 740.8 770.421 739.1 777.421 739.1C779.621 739.1 781.821 739.4 784.021 740C786.221 740.4 788.321 741 790.321 741.8C791.521 742.4 792.121 743.3 792.121 744.5C792.121 745.3 791.721 746.1 790.921 746.9C790.121 747.5 789.121 747.6 787.921 747.2C787.921 747.2 787.621 747.1 787.021 746.9C786.421 746.7 785.621 746.5 784.621 746.3C783.621 745.9 782.521 745.6 781.321 745.4C780.121 745.2 778.821 745.1 777.421 745.1C769.221 745.1 761.421 747.6 754.021 752.6C746.621 757.6 739.721 763.7 733.321 770.9C727.121 778.1 721.721 785.1 717.121 791.9C716.521 792.9 715.721 793.4 714.721 793.4ZM790.621 849.5C781.621 849.5 775.121 847.1 771.121 842.3C767.321 837.3 765.421 831.9 765.421 826.1C765.421 821.3 766.621 816.7 769.021 812.3C769.621 811.3 770.521 810.8 771.721 810.8C772.721 810.8 773.521 811.3 774.121 812.3C774.921 813.1 775.021 814.1 774.421 815.3C772.421 818.9 771.421 822.5 771.421 826.1C771.421 830.5 772.921 834.5 775.921 838.1C778.921 841.7 783.821 843.5 790.621 843.5C798.221 843.5 805.421 841.9 812.221 838.7C819.221 835.3 825.821 831.3 832.021 826.7C832.421 826.3 833.021 826.1 833.821 826.1C835.821 826.1 836.821 827.1 836.821 829.1C836.821 830.1 836.421 830.9 835.621 831.5C829.221 836.3 822.321 840.5 814.921 844.1C807.521 847.7 799.421 849.5 790.621 849.5ZM733.321 849.2C726.721 849.2 720.821 847 715.621 842.6C710.621 838.2 708.321 831.4 708.721 822.2C708.721 820.4 709.721 819.5 711.721 819.5C712.521 819.5 713.321 819.8 714.121 820.4C714.721 820.8 714.921 821.5 714.721 822.5C714.521 829.7 716.321 835 720.121 838.4C723.921 841.6 728.321 843.2 733.321 843.2C737.321 843.2 741.321 842.3 745.321 840.5C749.321 838.5 752.621 835.7 755.221 832.1C755.821 831.3 756.621 830.9 757.621 830.9C758.621 830.9 759.521 831.4 760.321 832.4C761.121 833.4 761.021 834.5 760.021 835.7C756.821 840.1 752.821 843.5 748.021 845.9C743.221 848.1 738.321 849.2 733.321 849.2ZM852.416 793.1C851.416 793.1 850.616 792.6 850.016 791.6C849.216 790.6 849.216 789.5 850.016 788.3C854.616 782.3 859.116 775.7 863.516 768.5C868.116 761.1 872.016 754.3 875.216 748.1C878.616 741.7 880.916 737.1 882.116 734.3C885.316 726.5 889.116 721 893.516 717.8C897.916 714.4 902.116 712.7 906.116 712.7C910.516 712.7 914.216 714.2 917.216 717.2C920.416 720.2 922.016 724 922.016 728.6C922.016 731 921.216 734 919.616 737.6C919.016 738.8 918.116 739.4 916.916 739.4C915.916 739.4 915.016 739 914.216 738.2C913.616 737.4 913.616 736.4 914.216 735.2C915.216 732.8 915.716 730.7 915.716 728.9C915.716 726.1 914.816 723.7 913.016 721.7C911.216 719.7 908.916 718.7 906.116 718.7C903.116 718.7 899.916 720.1 896.516 722.9C893.316 725.7 890.316 730.3 887.516 736.7C886.316 739.7 884.016 744.4 880.616 750.8C877.216 757.2 873.216 764.1 868.616 771.5C864.016 778.9 859.416 785.7 854.816 791.9C854.216 792.7 853.416 793.1 852.416 793.1ZM921.116 828.8C918.516 828.8 916.316 828.2 914.516 827C911.116 824.8 909.416 821.6 909.416 817.4C909.416 813 910.816 808.3 913.616 803.3C916.616 798.1 919.816 793.3 923.216 788.9C926.816 784.3 929.316 780.7 930.716 778.1C932.316 775.5 933.916 772.9 935.516 770.3C937.116 767.7 937.916 764.9 937.916 761.9C937.916 760.3 937.416 758.7 936.416 757.1C935.416 755.3 933.316 753.8 930.116 752.6C926.916 751.2 921.816 750.5 914.816 750.5C913.416 750.5 911.816 750.6 910.016 750.8C908.216 751 906.216 751.1 904.016 751.1H903.716C901.716 751.1 900.716 750.1 900.716 748.1C900.716 746.1 901.616 745.1 903.416 745.1C905.016 744.9 906.716 744.8 908.516 744.8C910.316 744.6 912.016 744.5 913.616 744.5C921.416 744.5 928.416 745.7 934.616 748.1C941.016 750.3 944.216 754.6 944.216 761C944.216 765 942.816 769.5 940.016 774.5C936.416 781.3 932.216 787.7 927.416 793.7C922.816 799.5 919.016 805.9 916.016 812.9C915.816 813.5 915.616 814.1 915.416 814.7C915.416 815.3 915.416 815.9 915.416 816.5C915.416 819.1 916.216 820.9 917.816 821.9C918.816 822.5 919.916 822.8 921.116 822.8C924.116 822.8 927.716 821.4 931.916 818.6C936.316 815.6 940.716 812.1 945.116 808.1C949.716 803.9 953.816 800 957.416 796.4C961.016 792.6 963.516 789.8 964.916 788C965.516 787.2 966.216 786.8 967.016 786.8C968.016 786.8 968.916 787.4 969.716 788.6C970.516 789.6 970.416 790.7 969.416 791.9C967.216 794.7 963.116 799.1 957.116 805.1C951.116 810.9 944.916 816.3 938.516 821.3C932.116 826.3 926.316 828.8 921.116 828.8ZM850.316 819.5C849.116 819.5 848.216 818.9 847.616 817.7C846.816 816.5 847.016 815.4 848.216 814.4C854.816 808 861.116 800.9 867.116 793.1C873.116 785.1 878.216 777.8 882.416 771.2C886.816 764.6 889.516 760 890.516 757.4C891.116 756.2 892.016 755.6 893.216 755.6C894.216 755.6 895.016 756 895.616 756.8C896.216 757.6 896.316 758.6 895.916 759.8C894.916 762.6 892.216 767.4 887.816 774.2C883.416 781 878.116 788.5 871.916 796.7C865.716 804.7 859.216 812 852.416 818.6C851.816 819.2 851.116 819.5 850.316 819.5ZM906.416 851C899.616 851 893.616 849.3 888.416 845.9C883.416 842.5 880.916 836.8 880.916 828.8C880.916 822.4 882.716 815.4 886.316 807.8C889.916 800 894.116 792.5 898.916 785.3C903.716 777.9 908.016 771.6 911.816 766.4C912.416 765.6 913.216 765.2 914.216 765.2C915.216 765.2 916.116 765.7 916.916 766.7C917.716 767.7 917.616 768.8 916.616 770C913.216 774.8 909.116 780.7 904.316 787.7C899.716 794.7 895.616 801.9 892.016 809.3C888.616 816.5 886.916 823 886.916 828.8C886.916 834.2 888.516 838.3 891.716 841.1C895.116 843.7 899.616 845 905.216 845C912.416 845 920.216 843.1 928.616 839.3C937.216 835.5 943.816 830.7 948.416 824.9C949.016 824.1 949.816 823.7 950.816 823.7C951.816 823.7 952.716 824.3 953.516 825.5C954.316 826.5 954.216 827.5 953.216 828.5C947.816 834.9 940.716 840.3 931.916 844.7C923.116 848.9 914.616 851 906.416 851ZM1010.77 829.4C1007.57 829.4 1005.27 828.2 1003.87 825.8C1002.67 823.4 1001.87 820.9 1001.47 818.3C1001.07 813.1 1001.47 806.7 1002.67 799.1C1003.87 791.3 1005.97 783 1008.97 774.2C1011.97 765.4 1016.07 756.9 1021.27 748.7C1021.67 747.9 1021.47 746.7 1020.67 745.1C1019.87 743.3 1017.57 742 1013.77 741.2C1013.17 741 1012.57 740.9 1011.97 740.9C1011.37 740.7 1010.67 740.6 1009.87 740.6C1007.27 740.6 1004.57 741.4 1001.77 743C999.167 744.4 996.767 747 994.567 750.8C991.967 755.2 988.367 761.4 983.767 769.4C979.367 777.4 974.567 784.9 969.367 791.9C968.767 792.7 967.967 793.1 966.967 793.1C965.967 793.1 965.167 792.6 964.567 791.6C963.767 790.6 963.767 789.5 964.567 788.3C969.767 781.3 974.567 773.9 978.967 766.1C983.367 758.3 986.767 752.2 989.167 747.8C991.967 743 995.167 739.6 998.767 737.6C1002.37 735.6 1006.07 734.6 1009.87 734.6C1014.67 734.6 1018.87 735.9 1022.47 738.5C1026.07 740.9 1027.87 743.8 1027.87 747.2C1027.87 748.6 1027.37 750.1 1026.37 751.7C1019.57 762.7 1014.67 773.9 1011.67 785.3C1008.67 796.7 1007.17 806.1 1007.17 813.5C1007.17 817.3 1007.47 819.9 1008.07 821.3C1008.87 822.7 1009.87 823.4 1011.07 823.4C1012.87 823.4 1014.87 822.4 1017.07 820.4C1019.47 818.2 1021.47 816 1023.07 813.8C1024.87 811.4 1025.87 810 1026.07 809.6C1029.47 804.8 1032.87 798.7 1036.27 791.3C1039.67 783.9 1042.87 776.3 1045.87 768.5C1048.87 760.7 1051.47 754 1053.67 748.4C1055.27 744 1058.27 740.7 1062.67 738.5C1067.07 736.1 1071.47 734.9 1075.87 734.9C1079.67 734.9 1082.87 735.8 1085.47 737.6C1088.27 739.4 1089.67 742.3 1089.67 746.3C1089.67 747.1 1089.67 747.9 1089.67 748.7C1089.67 749.3 1089.47 750.1 1089.07 751.1C1088.67 752.9 1087.57 756.4 1085.77 761.6C1083.97 766.8 1081.97 772.5 1079.77 778.7C1077.57 784.7 1075.57 790.1 1073.77 794.9C1071.97 799.5 1070.87 802.3 1070.47 803.3C1069.87 804.5 1069.07 805.1 1068.07 805.1C1067.07 805.1 1066.17 804.7 1065.37 803.9C1064.77 803.1 1064.67 802.1 1065.07 800.9C1065.47 799.9 1066.47 797.1 1068.07 792.5C1069.87 787.7 1071.77 782.4 1073.77 776.6C1075.97 770.6 1077.97 765.1 1079.77 760.1C1081.57 754.9 1082.67 751.5 1083.07 749.9C1083.27 749.1 1083.37 748.1 1083.37 746.9C1083.37 744.7 1082.67 743.2 1081.27 742.4C1079.87 741.4 1078.17 740.9 1076.17 740.9C1072.97 740.9 1069.57 741.9 1065.97 743.9C1062.57 745.7 1060.27 748 1059.07 750.8C1057.87 754 1056.07 758.8 1053.67 765.2C1051.27 771.4 1048.47 778.2 1045.27 785.6C1042.27 792.8 1038.87 799.8 1035.07 806.6C1031.27 813.2 1027.27 818.7 1023.07 823.1C1019.07 827.3 1014.97 829.4 1010.77 829.4ZM964.867 819.5C963.667 819.5 962.767 818.9 962.167 817.7C961.367 816.5 961.567 815.4 962.767 814.4C970.367 807 976.167 800.1 980.167 793.7C984.367 787.3 988.967 779.7 993.967 770.9C994.567 769.9 995.467 769.4 996.667 769.4C997.667 769.4 998.567 769.9 999.367 770.9C1000.17 771.7 1000.17 772.7 999.367 773.9C994.367 782.9 989.667 790.7 985.267 797.3C980.867 803.9 974.767 811 966.967 818.6C966.367 819.2 965.667 819.5 964.867 819.5ZM952.267 938.3C947.467 938.3 942.967 936.9 938.767 934.1C934.367 931.5 932.567 927 933.367 920.6C933.367 918.8 934.267 917.9 936.067 917.9C936.867 917.9 937.667 918.2 938.467 918.8C939.067 919.4 939.267 920.2 939.067 921.2C938.667 925 939.767 927.8 942.367 929.6C944.767 931.4 948.067 932.3 952.267 932.3C962.067 932.3 971.567 929.8 980.767 924.8C989.967 920 998.567 913.5 1006.57 905.3C1014.77 897.1 1022.27 888 1029.07 878C1036.07 868 1042.07 857.9 1047.07 847.7C1052.27 837.5 1056.47 828.1 1059.67 819.5C1060.27 818.5 1061.57 817.4 1063.57 816.2C1070.37 812.6 1076.97 808.6 1083.37 804.2C1089.97 799.8 1095.57 794.5 1100.17 788.3C1100.77 787.3 1101.57 786.8 1102.57 786.8C1103.57 786.8 1104.47 787.4 1105.27 788.6C1106.07 789.8 1105.97 790.9 1104.97 791.9C1099.17 799.7 1092.57 805.9 1085.17 810.5C1077.97 815.1 1071.17 819.1 1064.77 822.5C1061.57 831.1 1057.37 840.6 1052.17 851C1046.97 861.4 1040.77 871.7 1033.57 881.9C1026.57 892.1 1018.77 901.4 1010.17 909.8C1001.77 918.4 992.667 925.3 982.867 930.5C973.067 935.7 962.867 938.3 952.267 938.3ZM1008.07 849.2C1001.47 849.2 996.067 847.6 991.867 844.4C987.867 841.2 984.967 837.1 983.167 832.1C981.367 827.1 980.567 822.1 980.767 817.1C980.767 815.1 981.767 814.1 983.767 814.1C985.767 814.1 986.767 815.1 986.767 817.1C986.567 824.1 988.167 830.2 991.567 835.4C995.167 840.6 1000.67 843.2 1008.07 843.2C1012.87 843.2 1017.97 840.7 1023.37 835.7C1028.77 830.7 1034.07 824.2 1039.27 816.2C1044.67 808.2 1049.57 799.7 1053.97 790.7C1054.57 789.5 1055.47 788.9 1056.67 788.9C1057.67 788.9 1058.47 789.3 1059.07 790.1C1059.87 790.9 1059.97 791.9 1059.37 793.1C1055.17 801.7 1050.27 810.4 1044.67 819.2C1039.07 827.8 1033.17 835 1026.97 840.8C1020.77 846.4 1014.47 849.2 1008.07 849.2ZM953.767 917.3C951.167 917.3 948.567 916.5 945.967 914.9C943.167 913.5 941.767 911.1 941.767 907.7C941.767 907.1 941.867 906.5 942.067 905.9C942.067 905.3 942.167 904.7 942.367 904.1C943.367 900.5 945.967 896.4 950.167 891.8C954.167 887.4 959.067 882.9 964.867 878.3C970.667 873.9 976.367 870 981.967 866.6C987.767 863.2 992.567 860.8 996.367 859.4C996.567 859.2 996.967 859.1 997.567 859.1C999.567 859.1 1000.57 860.2 1000.57 862.4C1000.57 863.4 999.967 864.2 998.767 864.8C995.167 866.2 990.667 868.5 985.267 871.7C980.067 874.9 974.667 878.5 969.067 882.5C963.667 886.7 959.067 890.8 955.267 894.8C951.267 899 948.867 902.6 948.067 905.6C948.067 905.8 948.067 906 948.067 906.2C947.867 906.6 947.767 906.9 947.767 907.1C947.767 909.9 949.667 911.3 953.467 911.3C959.067 911.3 965.267 909.2 972.067 905C979.067 901 986.067 895.7 993.067 889.1C1000.07 882.7 1006.47 876 1012.27 869C1018.27 862 1022.97 855.5 1026.37 849.5C1026.97 848.5 1027.87 848 1029.07 848C1030.07 848 1030.97 848.4 1031.77 849.2C1032.57 850.2 1032.57 851.3 1031.77 852.5C1028.37 858.5 1023.57 865.2 1017.37 872.6C1011.37 880 1004.57 887.1 996.967 893.9C989.567 900.7 982.067 906.3 974.467 910.7C967.067 915.1 960.167 917.3 953.767 917.3Z" fill="#3F3F50"/>
<path d="M13.9082 354.636H41.1809V381.909H13.9082V354.636ZM13.9082 381.909H41.1809V409.182H13.9082V381.909ZM13.9082 409.182H41.1809V436.455H13.9082V409.182ZM13.9082 436.455H41.1809V463.727H13.9082V436.455ZM13.9082 463.727H41.1809V491H13.9082V463.727ZM41.1809 354.636H68.4537V381.909H41.1809V354.636ZM68.4537 381.909H95.7264V409.182H68.4537V381.909ZM68.4537 409.182H95.7264V436.455H68.4537V409.182ZM68.4537 436.455H95.7264V463.727H68.4537V436.455ZM41.1809 463.727H68.4537V491H41.1809V463.727ZM122.893 463.727H150.165V491H122.893V463.727ZM122.893 436.455H150.165V463.727H122.893V436.455ZM122.893 409.182H150.165V436.455H122.893V409.182ZM122.893 354.636H150.165V381.909H122.893V354.636ZM231.93 381.909H259.203V409.182H231.93V381.909ZM231.93 409.182H259.203V436.455H231.93V409.182ZM231.93 436.455H259.203V463.727H231.93V436.455ZM231.93 463.727H259.203V491H231.93V463.727ZM204.657 381.909H231.93V409.182H204.657V381.909ZM204.657 463.727H231.93V491H204.657V463.727ZM177.385 409.182H204.657V436.455H177.385V409.182ZM177.385 436.455H204.657V463.727H177.385V436.455ZM286.369 381.909H313.642V409.182H286.369V381.909ZM286.369 409.182H313.642V436.455H286.369V409.182ZM286.369 436.455H313.642V463.727H286.369V436.455ZM286.369 463.727H313.642V491H286.369V463.727ZM313.642 381.909H340.915V409.182H313.642V381.909ZM368.107 381.909H395.38V409.182H368.107V381.909ZM368.107 409.182H395.38V436.455H368.107V409.182ZM368.107 436.455H395.38V463.727H368.107V436.455ZM422.653 381.909H449.926V409.182H422.653V381.909ZM422.653 409.182H449.926V436.455H422.653V409.182ZM422.653 436.455H449.926V463.727H422.653V436.455ZM395.38 463.727H422.653V491H395.38V463.727ZM368.107 491H395.38V518.273H368.107V491Z" fill="#3F3F50"/>
<path d="M1164.8 383.4C1166.4 387 1168.6 392.3 1171.4 399.3C1174.2 406.3 1177.1 413.9 1180.1 422.1C1183.3 430.1 1186.2 437.8 1188.8 445.2C1191.4 452.4 1193.3 458.1 1194.5 462.3L1171.1 470.4C1169.9 466.2 1168 460.5 1165.4 453.3C1163 445.9 1160.3 438.2 1157.3 430.2C1154.5 422.2 1151.7 414.7 1148.9 407.7C1146.1 400.5 1143.7 395 1141.7 391.2L1164.8 383.4ZM1298 402.6C1297 405.2 1296 408.1 1295 411.3C1294.2 414.5 1293.4 417.3 1292.6 419.7C1289.8 432.1 1286 444.9 1281.2 458.1C1276.6 471.3 1271.1 484.3 1264.7 497.1C1258.3 509.7 1251 521.4 1242.8 532.2C1232.6 545.6 1221 558 1208 569.4C1195.2 580.6 1181.7 590.4 1167.5 598.8C1153.5 607.2 1139.4 613.9 1125.2 618.9L1104.5 597.9C1118.9 593.7 1133.2 587.8 1147.4 580.2C1161.6 572.6 1175.1 563.6 1187.9 553.2C1200.9 542.6 1212.4 530.9 1222.4 518.1C1230.4 508.1 1237.6 496.4 1244 483C1250.4 469.4 1255.9 455.1 1260.5 440.1C1265.1 424.9 1268.4 409.8 1270.4 394.8L1298 402.6ZM1081.1 401.4C1083.1 405.6 1085.6 411.3 1088.6 418.5C1091.6 425.5 1094.8 433.2 1098.2 441.6C1101.6 449.8 1104.7 457.7 1107.5 465.3C1110.5 472.7 1112.9 478.8 1114.7 483.6L1091 492.3C1089.8 488.7 1088.1 484 1085.9 478.2C1083.9 472.2 1081.5 465.9 1078.7 459.3C1076.1 452.5 1073.4 445.8 1070.6 439.2C1068 432.6 1065.5 426.8 1063.1 421.8C1060.7 416.6 1058.8 412.7 1057.4 410.1L1081.1 401.4Z" fill="#3F3F50"/>
</svg>
